<?xml version="1.0" encoding="UTF-8"?>
<svg width="48px" height="71px" viewBox="0 0 48 71" version="1.1" xmlns="http://www.w3.org/2000/svg" xmlns:xlink="http://www.w3.org/1999/xlink">
    <!-- Generator: Sketch 64 (93537) - https://sketch.com -->
    <title>Logo Icon</title>
    <desc>Created with Sketch.</desc>
    <defs>
        <filter x="-26.1%" y="-13.3%" width="152.2%" height="126.7%" filterUnits="objectBoundingBox" id="filter-1">
            <feOffset dx="-2" dy="2" in="SourceAlpha" result="shadowOffsetOuter1"></feOffset>
            <feGaussianBlur stdDeviation="2" in="shadowOffsetOuter1" result="shadowBlurOuter1"></feGaussianBlur>
            <feColorMatrix values="0 0 0 0 0.0980392157   0 0 0 0 0.164705882   0 0 0 0 0.274509804  0 0 0 0.12 0" type="matrix" in="shadowBlurOuter1" result="shadowMatrixOuter1"></feColorMatrix>
            <feMerge>
                <feMergeNode in="shadowMatrixOuter1"></feMergeNode>
                <feMergeNode in="SourceGraphic"></feMergeNode>
            </feMerge>
        </filter>
        <linearGradient x1="37.0790097%" y1="75.8315678%" x2="62.9209903%" y2="15.9525071%" id="linearGradient-2">
            <stop stop-color="#7755FE" offset="0%"></stop>
            <stop stop-color="#E994F7" offset="100%"></stop>
        </linearGradient>
        <path d="M3.3443397,48.3929269 L19.4361429,16.3411861 C20.5097144,14.2028405 23.1134876,13.3396706 25.2518332,14.4132421 C26.7160762,15.1483757 27.6403509,16.6466365 27.6403509,18.2850592 L27.6403509,34.5430915 C27.6403509,35.6625876 28.5478818,36.5701185 29.6673779,36.5701185 L38.3673168,36.5701185 C40.8302082,36.5701185 42.8267763,38.5666865 42.8267763,41.0295779 C42.8267763,41.761736 42.6465069,42.4826319 42.3018855,43.1286129 L25.5986241,74.4383019 C24.4595615,76.5734357 21.8053008,77.3809109 19.670167,76.2418482 C18.2425706,75.4802464 17.3508772,73.9938912 17.3508772,72.3758465 L17.3508772,56.8803002 C17.3508772,55.7608041 16.4433463,54.8532731 15.3238502,54.8532731 L7.32971683,54.8532731 C4.86682537,54.8532731 2.87025737,52.8567051 2.87025737,50.3938137 C2.87025737,49.699027 3.03260024,49.0138513 3.3443397,48.3929269 Z" id="path-3"></path>
        <linearGradient x1="0.689613423%" y1="75.8315678%" x2="99.3103866%" y2="15.9525071%" id="linearGradient-5">
            <stop stop-color="#7755FE" offset="0%"></stop>
            <stop stop-color="#E994F7" offset="100%"></stop>
        </linearGradient>
        <linearGradient x1="50%" y1="42.8859375%" x2="99.3103866%" y2="15.9525071%" id="linearGradient-6">
            <stop stop-color="#7755FE" offset="0%"></stop>
            <stop stop-color="#E994F7" offset="100%"></stop>
        </linearGradient>
    </defs>
    <g id="Symbols" stroke="none" stroke-width="1" fill="none" fill-rule="evenodd">
        <g id="Logo-/-Icon-/-Colored" transform="translate(3.000000, -12.000000)">
            <g id="Logo-Icon" filter="url(#filter-1)">
                <mask id="mask-4" fill="white">
                    <use xlink:href="#path-3"></use>
                </mask>
                <use id="Lighting-Bolt" fill="url(#linearGradient-2)" xlink:href="#path-3"></use>
                <ellipse id="Oval-Copy" fill="url(#linearGradient-5)" mask="url(#mask-4)" cx="10.4912281" cy="28.2392777" rx="40.3508772" ry="40.6320542"></ellipse>
                <ellipse id="Oval" fill="url(#linearGradient-6)" mask="url(#mask-4)" cx="5.64912281" cy="22.9571106" rx="25.2192982" ry="25.3950339"></ellipse>
            </g>
        </g>
    </g>
</svg>